#!OML:ASF H:\ManfredETheater\Project 1\Capture day 1\Session 1\subject.ASF
:FULLY-SPECIFIED
:DEGREES
353
root -7.88557 8.60495 6.20365 51.2229 84.3764 47.4098
lowerback 63.5332 -5.83789 -4.06282
upperback 11.869 -5.6008 1.99419
thorax -7.63525 -1.56846 6.25989
lowerneck 7.15462 -18.6638 -16.7776
upperneck -14.3483 -25.157 28.4802
head 0.750026 -13.698 10.4848
rclavicle -1.11319e-014 1.19271e-015
rhumerus -26.0657 -5.09347 -62.5846
rradius 95.113
rwrist -17.0749
rhand -30.1206 -8.5388
rfingers 7.12502
rthumb -3.43389 -38.4909
lclavicle -1.11319e-014 1.19271e-015
lhumerus -20.2166 11.9491 37.1114
lradius 104.037
lwrist 4.41901
lhand -17.122 -2.66553
lfingers 7.12502
lthumb 9.11765 27.1174
rfemur -90.8137 -53.4605 5.31746
rtibia 131.463
rfoot -28.2739 -9.56171
rtoes -29.4348
lfemur -82.5471 42.7607 6.19531
ltibia 116.467
lfoot -30.0415 -26.092
ltoes -31.8036
354
root -7.88653 8.66794 6.30993 54.965 84.3926 50.7246
lowerback 63.2835 -6.14251 -3.72407
upperback 11.7991 -5.74399 2.00304
thorax -7.72346 -1.62655 6.19153
lowerneck 7.12116 -18.6621 -16.6837
upperneck -14.7169 -25.0878 28.5417
head 0.634723 -13.6802 10.5238
rclavicle -3.73715e-014 9.80008e-014
rhumerus -26.248 -4.94414 -62.7629
rradius 95.215
rwrist -17.09
rhand -30.0207 -8.49877
rfingers 7.12502
rthumb -3.33742 -38.4524
lclavicle -3.73715e-014 9.80008e-014
lhumerus -20.5037 12.309 37.6608
lradius 104.063
lwrist 4.36151
lhand -16.8723 -2.86208
lfingers 7.12502
lthumb 9.35855 26.9102
rfemur -91.4077 -53.744 6.42419
rtibia 131.51
rfoot -28.6832 -9.73835
rtoes -30.0079
lfemur -82.3124 41.9019 6.20186
ltibia 115.507
lfoot -29.5256 -25.5819
ltoes -32.125
355
root -7.88633 8.73412 6.41579 58.3113 84.3727 53.6128
lowerback 62.9934 -6.42983 -3.38208
upperback 11.7207 -5.8737 2.02069
thorax -7.82131 -1.68148 6.12628
lowerneck 7.07026 -18.6636 -16.5971
upperneck -15.0905 -25.0208 28.5995
head 0.521746 -13.6618 10.5607
rclavicle -3.49861e-014 6.54002e-014
rhumerus -26.453 -4.81515 -62.9483
rradius 95.3389
rwrist -17.0914
rhand -29.9007 -8.42179
rfingers 7.12502
rthumb -3.22154 -38.3772
lclavicle -3.49861e-014 6.54002e-014
lhumerus -20.8044 12.7073 38.2932
lradius 104.106
lwrist 4.28603
lhand -16.6456 -3.0533
lfingers 7.12502
lthumb 9.57727 26.709
rfemur -92.0269 -53.9142 7.56981
rtibia 131.522
rfoot -29.0782 -9.90947
rtoes -30.4674
lfemur -82.0455 41.0595 6.23773
ltibia 114.532
lfoot -29.0356 -25.0225
ltoes -32.424
356
root -7.88487 8.80344 6.52102 61.1699 84.3143 55.9849
lowerback 62.6624 -6.69443 -3.04677
upperback 11.6339 -5.99123 2.04403
thorax -7.92749 -1.73396 6.06525
lowerneck 7.00353 -18.663 -16.5234
upperneck -15.4703 -24.9493 28.6596
head 0.410827 -13.6397 10.5991
rclavicle 2.22639e-014 -6.16232e-014
rhumerus -26.6741 -4.70272 -63.1544
rradius 95.4792
rwrist -17.0744
rhand -29.7728 -8.31403
rfingers 7.12502
rthumb -3.09802 -38.2713
lclavicle 2.22639e-014 -6.16232e-014
lhumerus -21.1274 13.1391 39.0039
lradius 104.165
lwrist 4.18394
lhand -16.4654 -3.2246
lfingers 7.12502
lthumb 9.75119 26.5297
rfemur -92.6575 -53.9582 8.72775
rtibia 131.501
rfoot -29.4482 -10.0789
rtoes -30.8515
lfemur -81.7343 40.2385 6.3038
ltibia 113.542
lfoot -28.5649 -24.4136
ltoes -32.6673
357
root -7.88203 8.87623 6.62577 63.4202 84.2214 57.7302
lowerback 62.3005 -6.92749 -2.72648
upperback 11.5387 -6.09125 2.0748
thorax -8.04155 -1.78175 6.01149
lowerneck 6.92417 -18.659 -16.4633
upperneck -15.8613 -24.8711 28.7222
head 0.29972 -13.6131 10.6404
rclavicle 4.13472e-014 -1.37161e-014
rhumerus -26.9066 -4.60069 -63.3768
rradius 95.6294
rwrist -17.0451
rhand -29.6428 -8.19143
rfingers 7.12502
rthumb -2.97251 -38.1505
lclavicle 4.13472e-014 -1.37161e-014
lhumerus -21.4741 13.5989 39.7902
lradius 104.235
lwrist 4.0508
lhand -16.3384 -3.37519
lfingers 7.12502
lthumb 9.87369 26.3733
rfemur -93.265 -53.8537 9.86412
rtibia 131.442
rfoot -29.7888 -10.2426
rtoes -31.1352
lfemur -81.3565 39.4422 6.41222
ltibia 112.539
lfoot -28.1176 -23.7473
ltoes -32.8564
358
root -7.87757 8.95237 6.72984 64.9719 84.0881 58.7717
lowerback 61.919 -7.12168 -2.4347
upperback 11.4357 -6.17373 2.10877
thorax -8.16249 -1.8245 5.96592
lowerneck 6.83234 -18.6494 -16.4178
upperneck -16.2631 -24.783 28.7856
head 0.187717 -13.5802 10.6849
rclavicle 7.15625e-015 -5.48646e-014
rhumerus -27.1447 -4.50333 -63.6288
rradius 95.7799
rwrist -16.9992
rhand -29.5291 -8.06832
rfingers 7.12502
rthumb -2.86273 -38.0289
lclavicle 7.15625e-015 -5.48646e-014
lhumerus -21.8496 14.0814 40.646
lradius 104.316
lwrist 3.88951
lhand -16.276 -3.50538
lfingers 7.12502
lthumb 9.93387 26.2402
rfemur -93.8214 -53.5935 10.9458
rtibia 131.346
rfoot -30.0949 -10.4148
rtoes -31.35
lfemur -80.8773 38.6763 6.57997
ltibia 111.524
lfoot -27.647 -23.0712
ltoes -32.8673
359
root -7.87119 9.03133 6.83295 65.8269 83.9076 59.1216
lowerback 61.5214 -7.27315 -2.18307
upperback 11.3267 -6.24112 2.1412
thorax -8.28735 -1.86295 5.92911
lowerneck 6.73144 -18.6327 -16.3778
upperneck -16.6786 -24.6825 28.8439
head 0.0705924 -13.5399 10.731
rclavicle 1.74931e-014 3.22031e-014
rhumerus -27.3851 -4.40784 -63.9162
rradius 95.9235
rwrist -16.9376
rhand -29.4359 -7.96514
rfingers 7.12502
rthumb -2.77273 -37.9269
lclavicle 1.74931e-014 3.22031e-014
lhumerus -22.2544 14.5817 41.5636
lradius 104.403
lwrist 3.70937
lhand -16.2601 -3.62068
lfingers 7.12502
lthumb 9.94926 26.1242
rfemur -94.3078 -53.1929 11.9434
rtibia 131.219
rfoot -30.3695 -10.5811
rtoes -31.517
lfemur -80.2956 37.9472 6.78769
ltibia 110.505
lfoot -27.1929 -22.3478
ltoes -32.7919
360
root -7.86276 9.11297 6.93482 66.0238 83.679 58.8293
lowerback 61.1136 -7.38353 -1.97126
upperback 11.2121 -6.29388 2.17074
thorax -8.41588 -1.89685 5.89964
lowerneck 6.62204 -18.6103 -16.3419
upperneck -17.1054 -24.5716 28.8896
head -0.0520347 -13.4927 10.776
rclavicle -9.93923e-015 5.76476e-015
rhumerus -27.6265 -4.31495 -64.242
rradius 96.0526
rwrist -16.8706
rhand -29.3693 -7.89176
rfingers 7.12502
rthumb -2.70833 -37.8543
lclavicle -9.93923e-015 5.76476e-015
lhumerus -22.6844 15.0971 42.5461
lradius 104.496
lwrist 3.51854
lhand -16.2749 -3.74942
lfingers 7.12502
lthumb 9.93492 25.9961
rfemur -94.7028 -52.6608 12.8322
rtibia 131.061
rfoot -30.612 -10.7446
rtoes -31.6682
lfemur -79.6001 37.2425 7.03752
ltibia 109.488
lfoot -26.7682 -21.5602
ltoes -32.6628
361
root -7.85197 9.19681 7.03524 65.5905 83.3953 57.9316
lowerback 60.6994 -7.447 -1.80684
upperback 11.0919 -6.32912 2.19723
thorax -8.54816 -1.92481 5.87942
lowerneck 6.50693 -18.5832 -16.3067
upperneck -17.5396 -24.4527 28.9151
head -0.180886 -13.4394 10.8173
rclavicle 9.93923e-015 -1.37161e-014
rhumerus -27.8714 -4.22541 -64.6013
rradius 96.1637
rwrist -16.821
rhand -29.3227 -7.8643
rfingers 7.12502
rthumb -2.66332 -37.8274
lclavicle 9.93923e-015 -1.37161e-014
lhumerus -23.136 15.6262 43.5996
lradius 104.59
lwrist 3.3175
lhand -16.3029 -3.87062
lfingers 7.12502
lthumb 9.90796 25.8762
rfemur -95.0011 -52.0094 13.6011
rtibia 130.876
rfoot -30.8188 -10.9029
rtoes -31.8121
lfemur -78.7859 36.5686 7.32238
ltibia 108.479
lfoot -26.3845 -20.705
ltoes -32.5147
362
root -7.83861 9.282 7.13379 64.6005 83.0519 56.5054
lowerback 60.2741 -7.46662 -1.68942
upperback 10.9678 -6.35014 2.21563
thorax -8.68204 -1.94793 5.86409
lowerneck 6.38122 -18.552 -16.2609
upperneck -17.972 -24.3266 28.9112
head -0.315411 -13.3796 10.8494
rclavicle 1.19271e-014 -8.84592e-014
rhumerus -28.1184 -4.13375 -65.0031
rradius 96.2434
rwrist -16.7671
rhand -29.336 -7.86385
rfingers 7.12502
rthumb -2.67621 -37.8268
lclavicle 1.19271e-014 -8.84592e-014
lhumerus -23.6084 16.171 44.7215
lradius 104.684
lwrist 3.1077
lhand -16.3317 -3.99361
lfingers 7.12502
lthumb 9.88014 25.7546
rfemur -95.2113 -51.2584 14.2554
rtibia 130.669
rfoot -30.993 -11.0541
rtoes -31.9821
lfemur -77.863 35.9301 7.63218
ltibia 107.485
lfoot -26.0623 -19.768
ltoes -32.425
363
root -7.82253 9.36819 7.23036 63.1947 82.6454 54.6941
lowerback 59.8332 -7.4429 -1.61746
upperback 10.8397 -6.35539 2.22869
thorax -8.81739 -1.96556 5.85543
lowerneck 6.25334 -18.5182 -16.2157
upperneck -18.3988 -24.198 28.8855
head -0.452222 -13.316 10.8757
rclavicle 3.65764e-014 6.83819e-014
rhumerus -28.3725 -4.05063 -65.4326
rradius 96.2971
rwrist -16.7691
rhand -29.325 -7.89894
rfingers 7.12502
rthumb -2.66561 -37.862
lclavicle 3.65764e-014 6.83819e-014
lhumerus -24.0968 16.7326 45.9203
lradius 104.775
lwrist 2.8904
lhand -16.3379 -4.13489
lfingers 7.12502
lthumb 9.87416 25.6136
rfemur -95.341 -50.4263 14.8005
rtibia 130.443
rfoot -31.1325 -11.1996
rtoes -32.1825
lfemur -76.8382 35.3186 7.95992
ltibia 106.508
lfoot -25.8044 -18.7502
ltoes -32.4254
364
root -7.80354 9.45517 7.32446 61.5142 82.1723 52.6431
lowerback 59.3787 -7.38071 -1.5876
upperback 10.7052 -6.34729 2.23679
thorax -8.95677 -1.97842 5.85374
lowerneck 6.11847 -18.4847 -16.1615
upperneck -18.813 -24.0707 28.83
head -0.590332 -13.25 10.8909
rclavicle -2.90226e-014 4.88016e-014
rhumerus -28.6359 -3.97234 -65.883
rradius 96.3178
rwrist -16.8244
rhand -29.3054 -7.95603
rfingers 7.12502
rthumb -2.64664 -37.9194
lclavicle -2.90226e-014 4.88016e-014
lhumerus -24.6011 17.3127 47.2025
lradius 104.861
lwrist 2.65885
lhand -16.326 -4.29261
lfingers 7.12502
lthumb 9.88566 25.4553
rfemur -95.3964 -49.5377 15.2442
rtibia 130.198
rfoot -31.242 -11.332
rtoes -32.402
lfemur -75.7193 34.7269 8.29636
ltibia 105.551
lfoot -25.603 -17.6739
ltoes -32.5207
